<svg width="181" height="69" viewBox="0 0 181 69" fill="none" xmlns="http://www.w3.org/2000/svg">
<path d="M94.9169 32.56C88.7169 36.44 76.6369 40.9 73.8169 47.98C73.6569 48.36 73.5569 48.72 73.4969 49.08V51.12C74.2769 54.66 79.0969 56.62 82.3369 56.96C82.4569 56.96 82.5969 56.98 82.7769 56.98H86.7969C91.5369 56.82 97.9769 56.06 97.7369 54.06C97.4369 51.46 90.3369 55.46 82.2969 54.32C80.1769 54 77.4769 53.24 76.2569 51.24C73.2169 46.26 92.0369 36.9 95.8369 34.96C97.9169 33.92 101.537 33.3 100.237 30.86C99.4769 30.2 96.9769 31.68 92.1969 27.9C89.2969 25.6 88.6969 23.72 91.4169 20.92C94.2369 18.02 102.657 13.24 106.497 13.52C105.757 18.02 99.7169 22.58 100.317 24.14C101.117 26.24 102.837 24.14 103.557 23.26C104.997 21.44 108.637 16.54 108.997 13.48V12.66C108.877 11.86 108.417 11.26 107.417 11.04H105.097C104.717 11.1 104.297 11.18 103.837 11.28C99.4769 12.32 91.9369 16.14 89.1969 19.66C83.8369 26.48 89.7569 29.24 94.9169 32.56ZM108.44 23.36L95.6005 58.48C94.6405 60.66 94.1605 62.38 94.1605 63.66C94.1805 64.64 94.6405 64.86 95.5005 64.3C95.6605 64.24 95.7805 64.14 95.9005 63.98C95.9605 63.9 96.0205 63.8 96.1005 63.7C96.5805 62.94 96.8605 62.42 96.9605 62.16C97.0205 61.92 97.1805 61.32 97.4005 60.42C97.6405 59.5 97.8805 58.6 98.2005 57.72L103.26 43.96C103.28 43.88 109.56 47.76 110.88 43.98C111.38 42.5 108.34 44.18 105.1 41.42C104.74 41.12 105.22 40.54 105.76 40.14C107.26 39 112.88 35.94 111.68 33.82C111.5 33.52 111.2 33.48 110.76 33.72L106.3 37.1C105.98 37.32 105.78 37.42 105.74 37.38C105.68 37.32 105.72 37.16 105.82 36.84L110.72 23.46C111.6 21.08 111.58 19.9 110.64 19.9C110.14 19.9 109.68 20.16 109.26 20.66C109.2 20.76 109.14 20.84 109.1 20.9C108.86 22.02 108.64 22.84 108.44 23.36ZM118.679 36.48C117.559 36.64 115.799 37.4 114.999 38.32C114.119 39.28 113.519 40.98 114.439 42C115.179 42.82 116.359 42.86 117.139 43.18C113.479 43.18 111.339 47.6 113.239 48.98C115.019 50.3 118.959 48.94 119.819 45.68C121.039 45.2 126.239 42.78 125.579 41.06C125.399 40.62 124.819 40.32 124.139 40.8C122.319 42.12 122.379 42.24 120.199 42.84C119.599 40.96 116.839 41.04 116.239 40.36C116.439 39.1 118.619 38.78 118.699 38.74C118.859 38.62 120.119 36.6 118.679 36.48ZM117.179 45.42C114.719 49.92 113.219 45.8 116.299 45.52L117.179 45.42ZM132.57 38.64C130.15 38.58 126.89 38.78 125.89 40.82C124.87 42.9 127.55 45.06 128.43 45.06C129.27 45.06 130.11 44.02 131.05 43.38C131.67 42.94 130.15 45.64 131.39 46.5C131.93 46.9 132.55 46.72 133.09 46.42C135.51 45.12 137.41 43.78 139.61 42C139.75 41.5 139.75 41.32 139.43 40.98C139.13 40.68 138.79 40.52 138.35 40.68C137.95 40.98 133.61 43.74 133.61 43.28L135.13 39.82C135.33 38.38 133.61 38.64 132.57 38.64ZM130.57 41.08C129.85 41.74 128.53 43.24 127.93 41.56C128.45 41.08 130.79 40.74 130.57 41.08ZM156.202 15.6C155.782 15.6 155.302 15.94 155.162 16.36C155.162 16.36 152.402 24.42 149.062 32.3C148.062 34.66 147.022 36.98 145.982 39.06C145.642 38.74 145.262 38.5 144.842 38.34C144.042 38.06 143.202 38.2 142.542 38.54C141.222 39.22 140.382 40.54 139.702 41.94C139.002 43.36 138.562 44.86 138.462 46.12C138.402 46.76 138.402 47.34 138.742 47.98C138.902 48.3 139.222 48.62 139.622 48.78C139.922 48.9 140.222 48.9 140.502 48.86C141.002 48.92 141.502 48.82 141.922 48.62C142.422 48.38 142.862 48.02 143.302 47.58C144.122 46.78 144.902 45.66 145.722 44.32L140.502 59.74C140.482 59.84 140.442 60 140.442 60.1C140.442 60.72 140.962 61.24 141.582 61.24C141.942 61.24 142.362 61 142.542 60.68C143.542 59.02 143.962 57.92 144.102 57.14C144.182 56.74 144.182 56.4 144.142 56.14C144.142 56.12 144.122 56.1 144.122 56.1L157.302 17.08C157.342 17 157.362 16.84 157.362 16.74C157.362 16.1 156.862 15.6 156.222 15.6C156.222 15.6 156.222 15.6 156.202 15.6ZM143.862 40.44C143.942 40.44 144.002 40.44 144.082 40.48C144.222 40.52 144.502 40.72 144.862 41.24C144.542 41.82 144.242 42.38 143.942 42.88C143.122 44.26 142.322 45.36 141.702 45.98C141.382 46.3 141.102 46.5 140.942 46.58C140.862 46.62 140.822 46.62 140.802 46.62C140.782 46.62 140.742 46.6 140.702 46.6C140.702 46.52 140.702 46.42 140.722 46.3C140.782 45.48 141.162 44.1 141.742 42.94C142.302 41.78 143.102 40.8 143.602 40.56C143.722 40.48 143.802 40.46 143.862 40.44ZM156.028 34.88L150.428 49.74C150.168 50.42 150.308 50.8 150.808 50.88C151.328 50.98 151.848 50.86 152.368 50.56C154.888 46.74 157.908 42.2 160.988 38.86C161.288 38.52 161.428 38.44 161.408 38.64C161.388 38.7 161.368 38.84 161.308 39.06C160.908 40.32 160.548 41.42 160.008 42.66C159.748 43.24 159.568 43.66 159.428 43.94C157.648 47.44 162.688 43.5 163.248 43.7C163.348 43.76 163.408 43.8 163.448 43.88C163.888 44.88 163.928 46.44 164.548 47.16C164.788 47.44 165.088 47.58 165.448 47.56C167.548 47.48 171.188 44.06 172.888 42.76C173.228 42.42 173.288 41.98 173.068 41.48C172.828 40.98 172.448 40.78 171.848 40.88L166.608 44.32C166.368 44.48 166.208 44.58 166.128 44.56C166.068 44.54 165.988 44.42 165.928 44.2C165.528 42.24 166.728 39.58 163.468 40.62C163.408 40.62 163.348 40.62 163.268 40.62C163.108 40.58 163.268 40.34 163.248 40.14C163.628 38.94 164.208 36.86 163.308 35.86C161.688 33.76 157.708 39.52 156.748 40.72C156.428 41.12 156.268 41.32 156.268 41.32C156.188 41.36 156.288 41.1 156.468 40.56L158.148 35.44C158.388 34.72 158.228 34.32 157.728 34.22C157.248 34.12 156.668 34.34 156.028 34.88Z" fill="white"/>
<path fill-rule="evenodd" clip-rule="evenodd" d="M21.4345 24.8203C18.3401 27.2475 16.352 31.0208 16.352 35.2584C16.352 39.4961 18.3401 43.2694 21.4345 45.6965C19.1819 47.4634 16.3432 48.5169 13.2584 48.5169C5.936 48.5169 0 42.5809 0 35.2584C0 27.936 5.936 22 13.2584 22C16.3432 22 19.1819 23.0535 21.4345 24.8203Z" fill="#759324"/>
<path fill-rule="evenodd" clip-rule="evenodd" d="M39.9963 24.8203C36.902 27.2475 34.9139 31.0208 34.9139 35.2584C34.9139 39.4961 36.902 43.2694 39.9963 45.6965C37.7438 47.4634 34.905 48.5169 31.8203 48.5169C24.4978 48.5169 18.5618 42.5809 18.5618 35.2584C18.5618 27.936 24.4978 22 31.8203 22C34.905 22 37.7438 23.0535 39.9963 24.8203Z" fill="#7A5EB1"/>
<path fill-rule="evenodd" clip-rule="evenodd" d="M50.824 48.5169C58.1415 48.5169 64.0744 42.5889 64.0824 35.2732C64.0824 35.2683 64.0824 35.2634 64.0824 35.2584C64.0824 35.2535 64.0824 35.2486 64.0824 35.2436C64.0744 27.928 58.1415 22 50.824 22C43.5016 22 37.5656 27.936 37.5656 35.2584C37.5656 42.5809 43.5016 48.5169 50.824 48.5169Z" fill="#AF7A30"/>
</svg>
